Coordinates
version=1
nRows=10
nColumns=40
inDegrees=yes

Units are S.I. units (second, meters, Newtons, ...)
If the header above contains a line with 'inDegrees', this indicates whether rotational values are in degrees (yes) or radians (no).

endheader
time	pelvis_tilt	pelvis_list	pelvis_rotation	pelvis_tx	pelvis_ty	pelvis_tz	hip_flexion_r	hip_adduction_r	hip_rotation_r	knee_angle_r	knee_angle_r_beta	ankle_angle_r	subtalar_angle_r	mtp_angle_r	hip_flexion_l	hip_adduction_l	hip_rotation_l	knee_angle_l	knee_angle_l_beta	ankle_angle_l	subtalar_angle_l	mtp_angle_l	lumbar_extension	lumbar_bending	lumbar_rotation	arm_flex_r	arm_add_r	arm_rot_r	elbow_flex_r	pro_sup_r	wrist_flex_r	wrist_dev_r	arm_flex_l	arm_add_l	arm_rot_l	elbow_flex_l	pro_sup_l	wrist_flex_l	wrist_dev_l
      3.50000000	     -2.77207545	     -2.19298074	      0.57554877	     -0.32061515	      0.94142608	     -1.02512076	     30.80392032	     -6.35024512	     -2.62547257	    104.21233451	      1.81884836	     -9.08563995	      0.00000000	      0.00000000	     11.56794664	      2.26483497	     -7.93083659	     14.97226398	      0.26131530	     -4.45551334	      0.00000000	      0.00000000	     -8.64230506	      1.99714055	      0.55537352	     84.20241387	    -16.69273305	     26.08274762	     28.76297691	     85.85779297	      0.00000000	      0.00000000	     85.77988937	    -28.20011721	     32.65681036	     37.44495598	     85.28340505	      0.00000000	      0.00000000
      3.50500000	     -2.87134809	     -2.19128038	      0.66503766	     -0.32093284	      0.94111778	     -1.02504344	     30.80327526	     -6.33814177	     -2.72963509	    104.19256812	      1.81850337	     -9.06171550	      0.00000000	      0.00000000	     11.79669665	      2.26144260	     -7.87108298	     15.16098058	      0.26460903	     -4.37375881	      0.00000000	      0.00000000	     -8.61951354	      1.96437842	      0.50289039	     84.27043750	    -16.70529616	     26.11023041	     28.64653063	     85.95433443	      0.00000000	      0.00000000	     85.92209163	    -28.17388912	     32.73467685	     37.41482570	     85.10752889	      0.00000000	      0.00000000
      3.51000000	     -2.94666004	     -2.14463491	      0.78661647	     -0.32125046	      0.94089032	     -1.02504819	     30.74969829	     -6.39998291	     -2.85881809	    104.15208071	      1.81779673	     -9.12142954	      0.00000000	      0.00000000	     11.98399944	      2.31806321	     -7.82652702	     15.30609481	      0.26714175	     -4.39107409	      0.00000000	      0.00000000	     -8.63879146	      1.88551587	      0.40869982	     84.33043046	    -16.70226960	     25.99455528	     28.53867893	     85.92699646	      0.00000000	      0.00000000	     86.05760388	    -28.11333566	     32.66114810	     37.36381034	     85.14810511	      0.00000000	      0.00000000
      3.51500000	     -3.02625889	     -2.19511821	      0.87874582	     -0.32161371	      0.94059397	     -1.02492152	     30.71389968	     -6.29893636	     -2.97640681	    104.10137152	      1.81691169	     -9.17653860	      0.00000000	      0.00000000	     12.23677130	      2.25163273	     -7.71330819	     15.58300462	      0.27197474	     -4.27184776	      0.00000000	      0.00000000	     -8.65078317	      1.91127549	      0.39372172	     84.42264110	    -16.77771804	     26.17832570	     28.45401393	     86.05932205	      0.00000000	      0.00000000	     86.20944960	    -28.09956986	     32.85111024	     37.34989203	     84.84523170	      0.00000000	      0.00000000
      3.52000000	     -3.10322909	     -2.16603160	      0.95961619	     -0.32196959	      0.94030923	     -1.02483912	     30.67270365	     -6.27992218	     -3.03094497	    104.08009648	      1.81654037	     -9.03354326	      0.00000000	      0.00000000	     12.46065485	      2.28338945	     -7.60943609	     15.79598378	      0.27569193	     -4.24616992	      0.00000000	      0.00000000	     -8.67387478	      1.84797518	      0.36701167	     84.52037038	    -16.74983841	     25.88560183	     28.28205612	     86.03474894	      0.00000000	      0.00000000	     86.33450657	    -28.02978610	     32.74491696	     37.30180895	     84.98013683	      0.00000000	      0.00000000
      3.52500000	     -3.26337949	     -2.05896140	      0.94381371	     -0.32244724	      0.93986039	     -1.02478002	     30.79828127	     -6.33919378	     -2.97738104	    104.10373367	      1.81695292	     -9.13803165	      0.00000000	      0.00000000	     12.76373240	      2.38011339	     -7.67906703	     15.99442389	      0.27915536	     -4.20225617	      0.00000000	      0.00000000	     -8.62395218	      1.70420442	      0.36489512	     84.60526193	    -16.71508397	     25.89491262	     28.20976589	     85.91456861	      0.00000000	      0.00000000	     86.47197071	    -28.03518676	     32.69651879	     37.25114698	     85.24695334	      0.00000000	      0.00000000
      3.53000000	     -3.34864303	     -2.13625975	      1.01036389	     -0.32288508	      0.93951722	     -1.02461586	     30.76348780	     -6.18565751	     -3.10347223	    104.06273584	      1.81623737	     -9.20133140	      0.00000000	      0.00000000	     13.06291647	      2.27908304	     -7.56139768	     16.34233942	      0.28522763	     -4.03552218	      0.00000000	      0.00000000	     -8.65215708	      1.74534488	      0.38162364	     84.72496444	    -16.81504721	     26.06119390	     28.14617572	     85.87128653	      0.00000000	      0.00000000	     86.70179470	    -28.00599363	     32.99709873	     37.18018341	     85.03093535	      0.00000000	      0.00000000
      3.53500000	     -3.48054201	     -2.11011214	      1.01588888	     -0.32324727	      0.93914102	     -1.02444615	     30.79782332	     -6.14308237	     -3.11035013	    104.04551479	      1.81593681	     -9.18708572	      0.00000000	      0.00000000	     13.33598812	      2.28735846	     -7.56524511	     16.54889563	      0.28883272	     -3.97899630	      0.00000000	      0.00000000	     -8.62029582	      1.67291263	      0.42067490	     84.78770110	    -16.81942523	     25.87837719	     28.00082814	     85.88765075	      0.00000000	      0.00000000	     86.79310230	    -27.95456836	     32.97360061	     37.20628787	     84.91565767	      0.00000000	      0.00000000
      3.54000000	     -3.55684696	     -2.10749520	      1.00945116	     -0.32359065	      0.93885936	     -1.02424178	     30.74154253	     -6.03217033	     -3.10800029	    104.00555151	      1.81523931	     -9.11934066	      0.00000000	      0.00000000	     13.53825741	      2.26931143	     -7.53503658	     16.73789590	      0.29213139	     -3.91976859	      0.00000000	      0.00000000	     -8.64920353	      1.64209844	      0.46323222	     84.88014642	    -16.76386662	     25.68722074	     27.89744682	     85.86590838	      0.00000000	      0.00000000	     86.85026077	    -27.85908621	     32.60913733	     37.13592684	     85.20414219	      0.00000000	      0.00000000
      3.54500000	     -3.64268988	     -2.10699012	      1.00843366	     -0.32404569	      0.93850644	     -1.02400831	     30.73589707	     -5.93299913	     -3.12473055	    103.97791114	      1.81475690	     -9.22687847	      0.00000000	      0.00000000	     13.79378518	      2.24012111	     -7.51076988	     16.99899980	      0.29668852	     -3.79212201	      0.00000000	      0.00000000	     -8.68503908	      1.59895570	      0.52147924	     84.98972522	    -16.79270091	     25.71715290	     27.77620924	     85.86561310	      0.00000000	      0.00000000	     87.01958592	    -27.85404341	     32.77652094	     37.13433023	     85.05239576	      0.00000000	      0.00000000
